<svg width="500" height="500" viewBox="0 0 500 500" fill="none" xmlns="http://www.w3.org/2000/svg">
<path d="M390 65C388.674 65 387.402 65.5268 386.464 66.4645C385.527 67.4021 385 68.6739 385 70C385 71.3261 385.527 72.5979 386.464 73.5355C387.402 74.4732 388.674 75 390 75C391.326 75 392.598 74.4732 393.536 73.5355C394.473 72.5979 395 71.3261 395 70C395 68.6739 394.473 67.4021 393.536 66.4645C392.598 65.5268 391.326 65 390 65Z" fill="#F1BC19"/>
<path d="M250 60C199.609 60 151.282 80.0178 115.65 115.65C80.0178 151.282 60 199.609 60 250C60 300.391 80.0178 348.718 115.65 384.35C151.282 419.982 199.609 440 250 440C300.391 440 348.718 419.982 384.35 384.35C419.982 348.718 440 300.391 440 250C440 199.609 419.982 151.282 384.35 115.65C348.718 80.0178 300.391 60 250 60Z" fill="#F9DBD2"/>
<path d="M420 60C414.696 60 409.609 62.1071 405.858 65.8579C402.107 69.6086 400 74.6957 400 80C400 85.3043 402.107 90.3914 405.858 94.1421C409.609 97.8929 414.696 100 420 100C425.304 100 430.391 97.8929 434.142 94.1421C437.893 90.3914 440 85.3043 440 80C440 74.6957 437.893 69.6086 434.142 65.8579C430.391 62.1071 425.304 60 420 60Z" fill="#F1BC19"/>
<path d="M70 120C67.3478 120 64.8043 121.054 62.9289 122.929C61.0536 124.804 60 127.348 60 130C60 132.652 61.0536 135.196 62.9289 137.071C64.8043 138.946 67.3478 140 70 140C72.6522 140 75.1957 138.946 77.0711 137.071C78.9464 135.196 80 132.652 80 130C80 127.348 78.9464 124.804 77.0711 122.929C75.1957 121.054 72.6522 120 70 120Z" fill="#EE3E54"/>
<path d="M390 375C387.348 375 384.804 376.054 382.929 377.929C381.054 379.804 380 382.348 380 385C380 387.652 381.054 390.196 382.929 392.071C384.804 393.946 387.348 395 390 395C392.652 395 395.196 393.946 397.071 392.071C398.946 390.196 400 387.652 400 385C400 382.348 398.946 379.804 397.071 377.929C395.196 376.054 392.652 375 390 375ZM85 370C79.6957 370 74.6086 372.107 70.8579 375.858C67.1071 379.609 65 384.696 65 390C65 395.304 67.1071 400.391 70.8579 404.142C74.6086 407.893 79.6957 410 85 410C90.3043 410 95.3914 407.893 99.1421 404.142C102.893 400.391 105 395.304 105 390C105 384.696 102.893 379.609 99.1421 375.858C95.3914 372.107 90.3043 370 85 370Z" fill="#FBCD59"/>
<path d="M120 405C117.348 405 114.804 406.054 112.929 407.929C111.054 409.804 110 412.348 110 415C110 417.652 111.054 420.196 112.929 422.071C114.804 423.946 117.348 425 120 425C122.652 425 125.196 423.946 127.071 422.071C128.946 420.196 130 417.652 130 415C130 412.348 128.946 409.804 127.071 407.929C125.196 406.054 122.652 405 120 405Z" fill="#EE3E54"/>
<path d="M332.5 380C330.858 380 329.233 380.323 327.716 380.951C326.2 381.58 324.822 382.5 323.661 383.661C322.5 384.822 321.58 386.2 320.951 387.716C320.323 389.233 320 390.858 320 392.5C320 394.142 320.323 395.767 320.951 397.284C321.58 398.8 322.5 400.178 323.661 401.339C324.822 402.5 326.2 403.42 327.716 404.049C329.233 404.677 330.858 405 332.5 405C334.142 405 335.767 404.677 337.284 404.049C338.8 403.42 340.178 402.5 341.339 401.339C342.5 400.178 343.42 398.8 344.049 397.284C344.677 395.767 345 394.142 345 392.5C345 390.858 344.677 389.233 344.049 387.716C343.42 386.2 342.5 384.822 341.339 383.661C340.178 382.5 338.8 381.58 337.284 380.951C335.767 380.323 334.142 380 332.5 380ZM80 235C78.6739 235 77.4021 235.527 76.4645 236.464C75.5268 237.402 75 238.674 75 240C75 241.326 75.5268 242.598 76.4645 243.536C77.4021 244.473 78.6739 245 80 245C81.3261 245 82.5979 244.473 83.5355 243.536C84.4732 242.598 85 241.326 85 240C85 238.674 84.4732 237.402 83.5355 236.464C82.5979 235.527 81.3261 235 80 235Z" fill="white"/>
<path d="M430 150C428.674 150 427.402 150.527 426.464 151.464C425.527 152.402 425 153.674 425 155C425 156.326 425.527 157.598 426.464 158.536C427.402 159.473 428.674 160 430 160C431.326 160 432.598 159.473 433.536 158.536C434.473 157.598 435 156.326 435 155C435 153.674 434.473 152.402 433.536 151.464C432.598 150.527 431.326 150 430 150Z" fill="#F1BC19"/>
<path d="M400 320C397.348 320 394.804 321.054 392.929 322.929C391.054 324.804 390 327.348 390 330C390 332.652 391.054 335.196 392.929 337.071C394.804 338.946 397.348 340 400 340C402.652 340 405.196 338.946 407.071 337.071C408.946 335.196 410 332.652 410 330C410 327.348 408.946 324.804 407.071 322.929C405.196 321.054 402.652 320 400 320Z" fill="white"/>
<path d="M250 128.5C217.776 128.5 186.872 141.301 164.087 164.087C141.301 186.872 128.5 217.776 128.5 250C128.5 282.224 141.301 313.128 164.087 335.913C186.872 358.699 217.776 371.5 250 371.5C282.224 371.5 313.128 358.699 335.913 335.913C358.699 313.128 371.5 282.224 371.5 250C371.5 217.776 358.699 186.872 335.913 164.087C313.128 141.301 282.224 128.5 250 128.5Z" fill="#78A2D2"/>
<path d="M250 375C181 375 125 319 125 250C125 181 181 125 250 125C319 125 375 181 375 250C375 319 319 375 250 375ZM250 132.5C185 132.5 132.5 185 132.5 250C132.5 315 185 367.5 250 367.5C315 367.5 367.5 315 367.5 250C367.5 185 315 132.5 250 132.5Z" fill="#472B29"/>
<path d="M249.5 148.5C222.448 148.5 196.504 159.246 177.375 178.375C158.246 197.504 147.5 223.448 147.5 250.5C147.5 277.552 158.246 303.496 177.375 322.625C196.504 341.754 222.448 352.5 249.5 352.5C276.552 352.5 302.496 341.754 321.625 322.625C340.754 303.496 351.5 277.552 351.5 250.5C351.5 223.448 340.754 197.504 321.625 178.375C302.496 159.246 276.552 148.5 249.5 148.5Z" fill="#78A2D2"/>
<path d="M347 224C346 224 345 223.5 344.5 222C344 220.5 343.5 219 343 217.5C341 212 338.5 206.5 335.5 201.5C335 200.5 335 199 336.5 198C337.5 197.5 339 197.5 340 199C343 204.5 345.5 210 347.5 215.5C348 217 348.5 218.5 349 220C349.5 221.5 348.5 222.5 347.5 223C347.5 223.5 347.5 224 347 224Z" fill="#472B29"/>
<path d="M250 354.5C192.5 354.5 145.5 308 145.5 250.5C145.5 193 192.5 146.5 250 146.5C280 146.5 308.5 159.5 328 181.5C329.5 183 331 185 332.5 186.5C333.5 187.5 333 189 332 190C331 191 329.5 190.5 328.5 189.5C327 188 326 186 324.5 184.5C305.5 163.5 278.5 151 250 151C195 151 150.5 195.5 150.5 250C150.5 305 195 349.5 250 349.5C305 349.5 349.5 305 349.5 250.5C349.5 245.5 349 240.5 348.5 235.5C348.5 234 349 233 350.5 232.5C352 232.5 353 233 353.5 234.5C354.5 239.5 354.5 245 354.5 250C354.5 307.5 307.5 354.5 250 354.5Z" fill="#472B29"/>
<path d="M242 292C239.5 292 237.5 291 235.5 289.5L193.5 247.5C189.5 244 189.5 238 193 234C195 232 197.5 231 200 231C202.5 231 204.5 232 206.5 233.5L242 269.5L302 209.5C304 208 306 207 308.5 207C311 207 313.5 208 315.5 210C317 212 318 214.5 318 217C318 219.5 317 222 315 223.5L249 289C247 291 244.5 292 242 292Z" fill="#CECCBE"/>
<path d="M308.5 209C310.5 209 312 209.5 313.5 211C316 214 316 218 313 221L247 287.5C245.5 289 244 289.5 242 289.5C240.5 289.5 238.5 289 237.5 287.5L195.5 245.5C192.5 243 192.5 238.5 195 235.5C196.5 234 198.5 233 200 233C201.5 233 203.5 233.5 204.5 235L241.5 272.5L303.5 210.5C305 209.5 307 209 308.5 209ZM308.5 204C305.5 204 302.5 205 300.5 207.5L242 265.5L208.5 231.5C206.5 229.5 203.5 228.5 200.5 228.5C197 228.5 194 230 191.5 232.5C189.5 235 188 238 188.5 241C188.5 244 190 247 192.5 249.5L234.5 291.5C237 293.5 239.5 295 242.5 295C245.5 295 248.5 294 250.5 291.5L317 225C319 223 320.5 220 320.5 216.5C320.5 213 319.5 210 317 208C315 205 312 204 308.5 204Z" fill="#472B29"/>
</svg>
