<svg width="500" height="500" viewBox="0 0 500 500" fill="none" xmlns="http://www.w3.org/2000/svg">
<path d="M65 135C62.3478 135 59.8043 136.054 57.9289 137.929C56.0536 139.804 55 142.348 55 145C55 147.652 56.0536 150.196 57.9289 152.071C59.8043 153.946 62.3478 155 65 155C67.6522 155 70.1957 153.946 72.0711 152.071C73.9464 150.196 75 147.652 75 145C75 142.348 73.9464 139.804 72.0711 137.929C70.1957 136.054 67.6522 135 65 135Z" fill="#EE3E54"/>
<path d="M385 60C383.674 60 382.402 60.5268 381.464 61.4645C380.527 62.4021 380 63.6739 380 65C380 66.3261 380.527 67.5979 381.464 68.5355C382.402 69.4732 383.674 70 385 70C386.326 70 387.598 69.4732 388.536 68.5355C389.473 67.5979 390 66.3261 390 65C390 63.6739 389.473 62.4021 388.536 61.4645C387.598 60.5268 386.326 60 385 60Z" fill="#F1BC19"/>
<path d="M250 65C200.935 65 153.879 84.491 119.185 119.185C84.491 153.879 65 200.935 65 250C65 299.065 84.491 346.121 119.185 380.815C153.879 415.509 200.935 435 250 435C299.065 435 346.121 415.509 380.815 380.815C415.509 346.121 435 299.065 435 250C435 200.935 415.509 153.879 380.815 119.185C346.121 84.491 299.065 65 250 65Z" fill="#FCE0A2"/>
<path d="M415 55C409.696 55 404.609 57.1071 400.858 60.8579C397.107 64.6086 395 69.6957 395 75C395 80.3043 397.107 85.3914 400.858 89.1421C404.609 92.8929 409.696 95 415 95C420.304 95 425.391 92.8929 429.142 89.1421C432.893 85.3914 435 80.3043 435 75C435 69.6957 432.893 64.6086 429.142 60.8579C425.391 57.1071 420.304 55 415 55Z" fill="#F1BC19"/>
<path d="M435 110C432.348 110 429.804 111.054 427.929 112.929C426.054 114.804 425 117.348 425 120C425 122.652 426.054 125.196 427.929 127.071C429.804 128.946 432.348 130 435 130C437.652 130 440.196 128.946 442.071 127.071C443.946 125.196 445 122.652 445 120C445 117.348 443.946 114.804 442.071 112.929C440.196 111.054 437.652 110 435 110Z" fill="#EE3E54"/>
<path d="M405 370C402.348 370 399.804 371.054 397.929 372.929C396.054 374.804 395 377.348 395 380C395 382.652 396.054 385.196 397.929 387.071C399.804 388.946 402.348 390 405 390C407.652 390 410.196 388.946 412.071 387.071C413.946 385.196 415 382.652 415 380C415 377.348 413.946 374.804 412.071 372.929C410.196 371.054 407.652 370 405 370ZM75 295C69.6957 295 64.6086 297.107 60.8579 300.858C57.1071 304.609 55 309.696 55 315C55 320.304 57.1071 325.391 60.8579 329.142C64.6086 332.893 69.6957 335 75 335C80.3043 335 85.3914 332.893 89.1421 329.142C92.8929 325.391 95 320.304 95 315C95 309.696 92.8929 304.609 89.1421 300.858C85.3914 297.107 80.3043 295 75 295Z" fill="#FBCD59"/>
<path d="M125 425C122.348 425 119.804 426.054 117.929 427.929C116.054 429.804 115 432.348 115 435C115 437.652 116.054 440.196 117.929 442.071C119.804 443.946 122.348 445 125 445C127.652 445 130.196 443.946 132.071 442.071C133.946 440.196 135 437.652 135 435C135 432.348 133.946 429.804 132.071 427.929C130.196 426.054 127.652 425 125 425Z" fill="#EE3E54"/>
<path d="M92.5 255C89.1848 255 86.0054 256.317 83.6612 258.661C81.317 261.005 80 264.185 80 267.5C80 270.815 81.317 273.995 83.6612 276.339C86.0054 278.683 89.1848 280 92.5 280C95.8152 280 98.9946 278.683 101.339 276.339C103.683 273.995 105 270.815 105 267.5C105 264.185 103.683 261.005 101.339 258.661C98.9946 256.317 95.8152 255 92.5 255Z" fill="white"/>
<path d="M105 330C103.674 330 102.402 330.527 101.464 331.464C100.527 332.402 100 333.674 100 335C100 336.326 100.527 337.598 101.464 338.536C102.402 339.473 103.674 340 105 340C106.326 340 107.598 339.473 108.536 338.536C109.473 337.598 110 336.326 110 335C110 333.674 109.473 332.402 108.536 331.464C107.598 330.527 106.326 330 105 330Z" fill="#F1BC19"/>
<path d="M400 165C398.674 165 397.402 165.527 396.464 166.464C395.527 167.402 395 168.674 395 170C395 171.326 395.527 172.598 396.464 173.536C397.402 174.473 398.674 175 400 175C401.326 175 402.598 174.473 403.536 173.536C404.473 172.598 405 171.326 405 170C405 168.674 404.473 167.402 403.536 166.464C402.598 165.527 401.326 165 400 165Z" fill="white"/>
<path d="M362 220V322C362 343.5 344.5 361 323 361H177.5C156 361 138.5 343.5 138.5 322V178C138.5 156.5 156 139 177.5 139H323C341 139 356 151 361 168" fill="#A1D3A2"/>
<path d="M322.5 365H177.5C154 365 135 346 135 322.5V178C135 154.5 154 135.5 177.5 135.5H323C342 135.5 359 148.5 364 167C364.5 169 363.5 171 361.5 171.5C359.5 172 357.5 171 357 169C352.5 153.5 338.5 143 322.5 143H177.5C158 143 142 159 142 178.5V322.5C142 342 158 358 177.5 358H323C342.5 358 358.5 342 358.5 322.5V220C358.5 218 360 216.5 362 216.5C364 216.5 365.5 218 365.5 220V322C365.5 345.5 346 365 322.5 365Z" fill="#472B29"/>
<path d="M342.5 297C341 297 340 296 340 294.5V275C340 273.5 341 272.5 342.5 272.5C344 272.5 345 273.5 345 275V294.5C345 296 344 297 342.5 297ZM342.5 262.5C341 262.5 340 261.5 340 260V250C340 248.5 341 247.5 342.5 247.5C344 247.5 345 248.5 345 250V260C345 261.5 344 262.5 342.5 262.5Z" fill="#472B29"/>
<path d="M320 345H180C166 345 155 334 155 320V180C155 166 166 155 180 155H307C308.5 155 309.5 156 309.5 157.5C309.5 159 308.5 160 307 160H180C169 160 160 169 160 180V320C160 331 169 340 180 340H320C331 340 340 331 340 320V308C340 306.5 341 305.5 342.5 305.5C344 305.5 345 306.5 345 308V320C345 334 334 345 320 345Z" fill="#472B29"/>
<path d="M247.5 312.5H247C246.5 312.5 246.5 312.5 246 312.5C244 312.5 242 312 241 310.5L199.5 269.5C198 268 197.5 266.5 197.5 264.5C197.5 262.5 198.5 260.5 199.5 259.5C201 258 202.5 257.5 204.5 257.5C206.5 257.5 208.5 258.5 209.5 259.5L245 296.5L365 180C366.5 178.5 368 178 370 178C372 178 374 179 375 180C376.5 181.5 377 183 377 185C377 187 376 189 375 190L253 310.5C252.5 311 252 311.5 251 312C251 312 250.5 312 250.5 312.5C250 312.5 249.5 313 249 313C248.5 312.5 248.5 312.5 247.5 312.5Z" fill="#00AC9C"/>
<path d="M371 180C372.5 180 373.5 180.5 374.5 181.5C376.5 183.5 376.5 186.5 374.5 188.5L251.5 308.5C251 309 250.5 309 250 309.5H249.5C249 309.5 249 309.5 248.5 309.5H248C247.5 309.5 247.5 309.5 247.5 309.5C247 309.5 247 309.5 246.5 309.5C245.5 309.5 244 309 243 308L201.5 267C199.5 265 199.5 262 201.5 260C202.5 259 203.5 258.5 205 258.5C206.5 258.5 207.5 259 208.5 260L246 299L368 181C368.5 180.5 369.5 180 371 180ZM371 175C368.5 175 366 176 364 178L246 292.5L212 257C210 255 207.5 254 205 254C202.5 254 200 255 198 257C196 259 195 261.5 195 264C195 266.5 196 269 198 271L239.5 312C241.5 314 243.5 315 246.5 315H247C247.5 315 247.5 315 248 315C248.5 315 249.5 315 249.5 315C250 315 250.5 315 251 314.5C251.5 314.5 252 314 252 314C253 313.5 254 313 254.5 312L377.5 192C379.5 190 380.5 187.5 380.5 185C380.5 182.5 379.5 180 377.5 178C376 176 373.5 175 371 175Z" fill="#472B29"/>
</svg>
